<svg width="31" height="33" viewBox="0 0 31 33" fill="none" xmlns="http://www.w3.org/2000/svg">
<path fill-rule="evenodd" clip-rule="evenodd" d="M0.725586 16.7878C0.725586 16.178 0.919946 15.5931 1.26591 15.162C1.61187 14.7308 2.0811 14.4885 2.57036 14.4885H23.944L16.0225 4.62019C15.6761 4.18846 15.4815 3.6029 15.4815 2.99233C15.4815 2.38176 15.6761 1.7962 16.0225 1.36447C16.3689 0.932733 16.8387 0.690186 17.3286 0.690186C17.8185 0.690186 18.2883 0.932733 18.6347 1.36447L29.7034 15.1599C29.8752 15.3735 30.0115 15.6272 30.1045 15.9065C30.1975 16.1859 30.2453 16.4853 30.2453 16.7878C30.2453 17.0902 30.1975 17.3896 30.1045 17.669C30.0115 17.9483 29.8752 18.202 29.7034 18.4156L18.6347 32.2111C18.2883 32.6428 17.8185 32.8853 17.3286 32.8853C16.8387 32.8853 16.3689 32.6428 16.0225 32.2111C15.6761 31.7793 15.4815 31.1938 15.4815 30.5832C15.4815 29.9726 15.6761 29.3871 16.0225 28.9553L23.944 19.087H2.57036C2.0811 19.087 1.61187 18.8448 1.26591 18.4136C0.919946 17.9824 0.725586 17.3976 0.725586 16.7878Z" fill="#43AEAA"/>
</svg>
