<svg width="31" height="33" viewBox="0 0 31 33" fill="none" xmlns="http://www.w3.org/2000/svg">
<path fill-rule="evenodd" clip-rule="evenodd" d="M30.2746 16.7878C30.2746 17.3976 30.0803 17.9824 29.7343 18.4136C29.3883 18.8448 28.9191 19.087 28.4298 19.087H7.05625L14.9777 28.9553C15.1492 29.1691 15.2853 29.4229 15.3781 29.7022C15.471 29.9815 15.5187 30.2809 15.5187 30.5832C15.5187 30.8855 15.471 31.1849 15.3781 31.4642C15.2853 31.7435 15.1492 31.9973 14.9777 32.2111C14.8062 32.4248 14.6026 32.5944 14.3785 32.7101C14.1544 32.8258 13.9142 32.8853 13.6716 32.8853C13.4291 32.8853 13.1889 32.8258 12.9648 32.7101C12.7407 32.5944 12.537 32.4248 12.3655 32.2111L1.29686 18.4156C1.12506 18.202 0.988755 17.9483 0.895754 17.669C0.802753 17.3896 0.754883 17.0902 0.754883 16.7878C0.754883 16.4853 0.802753 16.1859 0.895754 15.9065C0.988755 15.6272 1.12506 15.3735 1.29686 15.1599L12.3655 1.36447C12.7119 0.932733 13.1817 0.690186 13.6716 0.690186C14.1615 0.690186 14.6313 0.932733 14.9777 1.36447C15.3241 1.7962 15.5187 2.38176 15.5187 2.99233C15.5187 3.6029 15.3241 4.18846 14.9777 4.62019L7.05625 14.4885H28.4298C28.9191 14.4885 29.3883 14.7308 29.7343 15.162C30.0803 15.5931 30.2746 16.178 30.2746 16.7878Z" fill="#43AEAA"/>
</svg>
